<svg xmlns="http://www.w3.org/2000/svg" version="1.1" xmlns:xlink="http://www.w3.org/1999/xlink" xmlns:svgjs="http://svgjs.dev/svgjs" width="2000" height="1247" viewBox="0 0 2000 1247"><g transform="matrix(1,0,0,1,-1.2121212121212466,0.5603927125505379)"><svg viewBox="0 0 396 247" data-background-color="#000000" preserveAspectRatio="xMidYMid meet" height="1247" width="2000" xmlns="http://www.w3.org/2000/svg" xmlns:xlink="http://www.w3.org/1999/xlink"><g id="tight-bounds" transform="matrix(1,0,0,1,0.2400000000000091,-0.09999999999999432)"><svg viewBox="0 0 395.52 247.2" height="247.2" width="395.52"><g><svg></svg></g><g><svg viewBox="0 0 395.52 247.2" height="247.2" width="395.52"><mask id="5862c211-4ab6-4658-ab61-b33cc2375e6f"><rect width="395.52" height="247.2" fill="white"></rect><g transform="matrix(1,0,0,1,65.65654624277457,37.08)" id="clone"><svg viewBox="0 0 264.20690751445085 173.04" height="173.04" width="264.20690751445085"><g><svg viewBox="0 0 264.20690751445085 173.04" height="173.04" width="264.20690751445085"><g><svg viewBox="0 0 264.20690751445085 173.04" height="173.04" width="264.20690751445085"><g><svg viewBox="0 0 264.20690751445085 173.04" height="173.04" width="264.20690751445085"><g id="SvgjsG1805"><svg viewBox="0 0 264.20690751445085 173.04" height="173.04" width="264.20690751445085" id="SvgjsSvg1804"><g><svg viewBox="0 0 264.20690751445085 173.04" height="173.04" width="264.20690751445085"><g transform="matrix(1,0,0,1,0,0)"><svg width="264.20690751445085" viewBox="1.13 -38.55 62.9 41.55" height="173.04" data-palette-color="#89939e"><path d="M25.76 0L13.16-16.53 8.81-12.01 8.81 0 4.13 0 4.13-35.55 8.81-35.55 8.81-17.97 24.61-35.55 30.27-35.55 16.28-19.85 31.37 0 25.76 0ZM48.53-13.92L40.16-13.92 40.16 0 35.47 0 35.47-35.55 48.58-35.55Q54.42-35.55 57.72-32.57 61.03-29.59 61.03-24.68L61.03-24.68Q61.03-19.51 57.8-16.71 54.56-13.92 48.53-13.92L48.53-13.92ZM40.16-31.69L40.16-17.75 48.58-17.75Q52.34-17.75 54.34-19.52 56.35-21.29 56.35-24.63L56.35-24.63Q56.35-27.81 54.34-29.71 52.34-31.62 48.85-31.69L48.85-31.69 40.16-31.69Z" opacity="1" transform="matrix(1,0,0,1,0,0)" fill="black" class="wordmark-text-0" id="SvgjsPath1803" stroke-width="5" stroke="black" stroke-linejoin="round"></path></svg></g></svg></g></svg></g></svg></g><g></g></svg></g></svg></g></svg></g></mask><g mask="url(#5862c211-4ab6-4658-ab61-b33cc2375e6f)"><g><path d="M253.463 247.211l-87.623-114.953-30.251 31.433v83.52h-32.545v-247.222h32.545v122.255l109.877-122.255h39.361l-97.29 109.181 104.939 138.041z" fill="#89939e" fill-rule="nonzero" stroke="none" stroke-width="1" stroke-linecap="butt" stroke-linejoin="miter" stroke-miterlimit="10" stroke-dasharray="" stroke-dashoffset="0" font-family="none" font-weight="none" font-size="none" text-anchor="none" style="mix-blend-mode: normal" data-fill-palette-color="tertiary"></path></g></g><g transform="matrix(1,0,0,1,65.65654624277457,37.08)"><svg viewBox="0 0 264.20690751445085 173.04" height="173.04" width="264.20690751445085"><g><svg viewBox="0 0 264.20690751445085 173.04" height="173.04" width="264.20690751445085"><g><svg viewBox="0 0 264.20690751445085 173.04" height="173.04" width="264.20690751445085"><g><svg viewBox="0 0 264.20690751445085 173.04" height="173.04" width="264.20690751445085"><g id="textblocktransform"><svg viewBox="0 0 264.20690751445085 173.04" height="173.04" width="264.20690751445085" id="textblock"><g><svg viewBox="0 0 264.20690751445085 173.04" height="173.04" width="264.20690751445085"><g transform="matrix(1,0,0,1,0,0)"><svg width="264.20690751445085" viewBox="1.13 -38.55 62.9 41.55" height="173.04" data-palette-color="#89939e"><path d="M25.76 0L13.16-16.53 8.81-12.01 8.81 0 4.13 0 4.13-35.55 8.81-35.55 8.81-17.97 24.61-35.55 30.27-35.55 16.28-19.85 31.37 0 25.76 0ZM48.53-13.92L40.16-13.92 40.16 0 35.47 0 35.47-35.55 48.58-35.55Q54.42-35.55 57.72-32.57 61.03-29.59 61.03-24.68L61.03-24.68Q61.03-19.51 57.8-16.71 54.56-13.92 48.53-13.92L48.53-13.92ZM40.16-31.69L40.16-17.75 48.58-17.75Q52.34-17.75 54.34-19.52 56.35-21.29 56.35-24.63L56.35-24.63Q56.35-27.81 54.34-29.71 52.34-31.62 48.85-31.69L48.85-31.69 40.16-31.69Z" opacity="1" transform="matrix(1,0,0,1,0,0)" fill="#89939e" class="wordmark-text-0" data-fill-palette-color="primary" id="text-0"></path></svg></g></svg></g></svg></g></svg></g><g></g></svg></g></svg></g></svg></g></svg></g><defs></defs></svg><rect width="395.52" height="247.2" fill="none" stroke="none" visibility="hidden"></rect></g></svg></g></svg>